<?xml version="1.0" encoding="utf-8"?>
<!-- Generator: Adobe Illustrator 25.4.1, SVG Export Plug-In . SVG Version: 6.00 Build 0)  -->
<svg version="1.1" id="Capa_1" xmlns="http://www.w3.org/2000/svg" xmlns:xlink="http://www.w3.org/1999/xlink" x="0px" y="0px"
	 viewBox="0 0 310.5 82.2" style="enable-background:new 0 0 310.5 82.2;" xml:space="preserve">
<style type="text/css">
	.st0{fill:#E13D8E;}
	.st1{fill:#FFFA4D;}
	.st2{fill:#EFE400;}
	.st3{fill:#F3558E;}
	.st4{fill:#FFFFFF;}
</style>
<g id="Capa_2_00000103978417832369654850000004881298672737386684_">
	<g id="IMG">
		<path class="st0" d="M271.5,0.5H68v81.7h203.5c21.5,0,39-17.5,39-39v-3.7C310.5,17.9,293,0.5,271.5,0.5z M306.5,43.2
			c0,19.3-15.7,35-35,35l0,0H72V4.5h199.5c19.3,0,35,15.7,35,35V43.2z"/>
		<path class="st1" d="M40.8,79.7C19.4,79.7,2,62.3,2,40.8C2,19.4,19.4,2,40.8,2H66v77.7H40.8z"/>
		<path class="st2" d="M40.8,0C18.3,0,0,18.3,0,40.9c0,22.6,18.3,40.8,40.8,40.8H68V0H40.8z M66,79.7H40.8C19.4,79.7,2,62.3,2,40.8
			C2,19.4,19.4,2,40.8,2H66V79.7z"/>
		<path class="st3" d="M72,78.2V4.5h199.5c19.3,0,35,15.7,35,35v3.7c0,19.3-15.7,35-35,35l0,0H72z"/>
		<path class="st4" d="M112,48.3c1.3-1,2.3-2.4,2.6-4.1L118,45c-0.5,2.3-1.8,4.4-3.7,5.9c-2,1.4-4.3,2.2-6.8,2.1
			c-6.2,0.1-11.2-4.9-11.3-11c0-0.1,0-0.1,0-0.2c0-6.2,4.9-11.2,11.1-11.3c0.1,0,0.1,0,0.2,0c2.4-0.1,4.8,0.7,6.7,2.1
			c1.9,1.4,3.2,3.4,3.8,5.6l-3.4,1c-0.4-1.6-1.3-3.1-2.6-4.1c-3.1-2.1-7.3-1.8-10,0.9c-3,3.2-3,8.2,0,11.4
			C104.7,50,108.9,50.4,112,48.3L112,48.3z"/>
		<path class="st4" d="M135.4,38.5c1.6,1.6,2.5,3.7,2.5,6c0.1,2.3-0.8,4.4-2.5,6c-3.5,3.1-8.7,3.1-12.2,0c-1.7-1.5-2.6-3.7-2.5-6
			c-0.1-2.3,0.8-4.5,2.5-6c1.6-1.6,3.8-2.4,6.1-2.3C131.5,36.1,133.7,37,135.4,38.5z M133,48.5c2.1-2.2,2.1-5.7,0-7.9
			c-2.1-2-5.4-2-7.5,0c-2.1,2.2-2.1,5.7,0,7.9C127.6,50.6,130.9,50.6,133,48.5z"/>
		<path class="st4" d="M155.1,38c1.2,1.3,1.8,3.1,1.8,4.9v9.7h-3.4v-9c0.1-1.1-0.3-2.3-1-3.2c-0.7-0.8-1.7-1.2-2.8-1.2
			c-1.3-0.1-2.6,0.5-3.5,1.5c-0.9,1.3-1.4,2.9-1.3,4.5v7.4h-3.4v-16h3.4v2c1.4-1.6,3.4-2.5,5.6-2.4C152.3,36.1,153.9,36.8,155.1,38z
			"/>
		<path class="st4" d="M172.2,51.8c-1.2,0.8-2.6,1.2-4,1.2c-2.9,0.3-5.5-1.9-5.8-4.8c0-0.4,0-0.7,0-1.1v-7.8H159v-2.8h3.4v-5h3.4v5
			h5.5v2.8h-5.5v7.5c-0.1,0.8,0.2,1.6,0.7,2.2c0.5,0.5,1.2,0.8,1.9,0.8c1,0,1.9-0.3,2.7-0.9L172.2,51.8z"/>
		<path class="st4" d="M190.1,52.5h-3.4v-1.8c-1.5,1.6-3.6,2.4-5.8,2.3c-2.1,0-4.1-0.8-5.6-2.4c-1.6-1.6-2.4-3.8-2.3-6.1
			c-0.1-2.3,0.8-4.4,2.4-6.1c1.4-1.5,3.5-2.4,5.6-2.4c2.2-0.1,4.3,0.7,5.8,2.3v-1.8h3.4L190.1,52.5z M185.2,48.5
			c2.1-2.2,2.1-5.7,0-7.9c-1-1-2.3-1.5-3.7-1.5c-1.4,0-2.8,0.5-3.7,1.5c-1,1.1-1.6,2.5-1.5,4c-0.1,1.5,0.5,2.9,1.5,4
			c1,1,2.3,1.5,3.7,1.5C182.9,50,184.2,49.5,185.2,48.5z"/>
		<path class="st4" d="M207,46.5l3.1,0.8c-0.4,1.7-1.4,3.1-2.8,4.1c-1.5,1-3.2,1.6-5,1.5c-2.2,0.1-4.4-0.8-6-2.4
			c-1.7-1.6-2.6-3.8-2.5-6.1c-0.1-2.3,0.8-4.5,2.5-6.1c3-2.8,7.5-3.2,10.9-0.9c1.4,1,2.4,2.4,2.9,4.1l-3.2,0.9
			c-0.2-1-0.8-1.9-1.7-2.6c-2.1-1.4-4.8-1.1-6.6,0.6c-1.9,2.2-1.9,5.5,0,7.7c1,1,2.3,1.5,3.7,1.5C204.5,50,206.4,48.6,207,46.5z"/>
		<path class="st4" d="M224.5,51.8c-1.2,0.8-2.6,1.2-4,1.2c-2.9,0.3-5.5-1.9-5.8-4.8c0-0.4,0-0.7,0-1.1v-7.8h-3.4v-2.8h3.4v-5h3.4v5
			h5.5v2.8h-5.4v7.5c-0.1,0.8,0.2,1.6,0.7,2.2c0.5,0.5,1.2,0.8,1.9,0.8c1,0,1.9-0.3,2.7-0.9L224.5,51.8z"/>
		<path class="st4" d="M242.4,52.5h-3.4v-1.8c-3.2,3.1-8.3,3.1-11.4-0.1c-1.6-1.6-2.4-3.8-2.3-6.1c-0.1-2.3,0.8-4.4,2.4-6.1
			c1.4-1.5,3.5-2.4,5.6-2.4c2.2-0.1,4.3,0.7,5.8,2.3v-1.8h3.4L242.4,52.5z M237.5,48.5c2.1-2.2,2.1-5.7,0-7.9c-1-1-2.3-1.5-3.7-1.5
			c-1.4,0-2.8,0.5-3.7,1.5c-1,1.1-1.6,2.5-1.5,4c-0.1,1.5,0.5,2.9,1.5,4c1,1,2.3,1.5,3.7,1.5C235.2,50,236.5,49.5,237.5,48.5
			L237.5,48.5z"/>
		<path class="st4" d="M258.1,36.5l-0.2,3.2c-0.2,0-0.5,0-0.9,0c-1.7-0.1-3.4,0.6-4.5,1.9c-1.1,1.5-1.7,3.4-1.6,5.3v5.7h-3.4v-16
			h3.4V40c1.2-2.3,3.6-3.7,6.1-3.7C257.4,36.3,257.7,36.4,258.1,36.5z"/>
	</g>
</g>
</svg>
