<svg xmlns="http://www.w3.org/2000/svg" viewBox="0 0 1037 273"><defs><style>.cls-1{fill:#ffbe4e;}.cls-2{fill:#ffdf3f;}.cls-3{fill:#3ebf9e;}.cls-4{fill:#52ffd2;}.cls-5{font-size:143.01px;fill:#fff;font-family:PatinioBasica, Patinio Basica;}</style></defs><g id="Capa_2" data-name="Capa 2"><g id="Background2"><rect class="cls-1" width="1037" height="273" rx="136.5"/><path class="cls-2" d="M136.5,253a116.5,116.5,0,0,1,0-233h764a116.5,116.5,0,0,1,0,233Z"/><path class="cls-3" d="M900.5,0H202V20H900.5a116.5,116.5,0,0,1,0,233H202v20H900.5A136.5,136.5,0,0,0,1037,136.5h0A136.5,136.5,0,0,0,900.5,0Z"/><path class="cls-4" d="M900.5,253a116.5,116.5,0,0,0,0-233H202V253Z"/><text class="cls-5" transform="translate(289 179.38)">Contactar</text></g></g></svg>