<svg xmlns="http://www.w3.org/2000/svg" viewBox="0 0 310.5 82.18"><defs><style>.cls-1{fill:#eb11c7;}.cls-2{fill:#f0f696;}.cls-3{fill:#efe400;}.cls-4{fill:#eb72c1;}.cls-5{fill:#fff;}</style></defs><g id="Capa_2" data-name="Capa 2"><g id="IMG"><path class="cls-1" d="M271.5.48H68v81.7H271.5a39,39,0,0,0,39-39v-3.7A39,39,0,0,0,271.5.48Zm35,42.7a35,35,0,0,1-35,35H72V4.48H271.5a35,35,0,0,1,35,35Z"/><path class="cls-2" d="M40.85,79.7a38.85,38.85,0,0,1,0-77.7H66V79.7Z"/><path class="cls-3" d="M40.85,0a40.85,40.85,0,0,0,0,81.7H68V0ZM66,79.7H40.85a38.85,38.85,0,0,1,0-77.7H66Z"/><path class="cls-4" d="M72,78.18V4.48H271.5a35,35,0,0,1,35,35v3.7a35,35,0,0,1-35,35Z"/><path class="cls-5" d="M112,48.34a7,7,0,0,0,2.61-4.07L118,45a9.8,9.8,0,0,1-3.74,5.87A11,11,0,0,1,107.5,53,11.15,11.15,0,0,1,96.25,41.73,11.18,11.18,0,0,1,107.5,30.47a11,11,0,0,1,6.7,2.1A9.77,9.77,0,0,1,118,38.21l-3.36,1A7,7,0,0,0,112,35.12,7.88,7.88,0,0,0,102,36a8.35,8.35,0,0,0,0,11.38,7.91,7.91,0,0,0,10,.92Z"/><path class="cls-5" d="M135.37,38.52a7.89,7.89,0,0,1,2.47,6,8,8,0,0,1-2.48,6,9.05,9.05,0,0,1-12.17,0,7.91,7.91,0,0,1-2.5-6,7.85,7.85,0,0,1,2.5-6,8.59,8.59,0,0,1,6.1-2.34A8.49,8.49,0,0,1,135.37,38.52Zm-2.37,10a5.73,5.73,0,0,0,0-7.9,5.31,5.31,0,0,0-7.46,0,5.75,5.75,0,0,0,0,7.9,5.31,5.31,0,0,0,7.46,0Z"/><path class="cls-5" d="M155.12,38a6.84,6.84,0,0,1,1.77,4.88v9.68h-3.38v-9a4.62,4.62,0,0,0-1-3.16,3.51,3.51,0,0,0-2.75-1.19,4.32,4.32,0,0,0-3.5,1.51,6.77,6.77,0,0,0-1.28,4.45v7.39h-3.35v-16h3.35v2a6.89,6.89,0,0,1,5.55-2.42A6.07,6.07,0,0,1,155.12,38Z"/><path class="cls-5" d="M172.21,51.75a7.75,7.75,0,0,1-4,1.23,5.31,5.31,0,0,1-5.78-5.9V39.31H159V36.53h3.44v-5h3.36v5h5.48v2.78h-5.48v7.54a3.08,3.08,0,0,0,.71,2.21,2.49,2.49,0,0,0,1.93.76,4.86,4.86,0,0,0,2.71-.87Z"/><path class="cls-5" d="M190.14,52.53h-3.35V50.69A7.67,7.67,0,0,1,181,53a7.58,7.58,0,0,1-5.59-2.37,8.29,8.29,0,0,1-2.34-6.08,8.3,8.3,0,0,1,2.35-6.06A7.58,7.58,0,0,1,181,36.08a7.71,7.71,0,0,1,5.81,2.29V36.53h3.35Zm-4.93-4.05a5.73,5.73,0,0,0,0-7.9,5.14,5.14,0,0,0-3.68-1.53,5,5,0,0,0-3.74,1.5,5.41,5.41,0,0,0-1.48,4,5.4,5.4,0,0,0,1.48,4,5,5,0,0,0,3.74,1.5A5.14,5.14,0,0,0,185.21,48.48Z"/><path class="cls-5" d="M207,46.53l3.1.81a7,7,0,0,1-2.82,4.09,8.39,8.39,0,0,1-5,1.55,8.29,8.29,0,0,1-6-2.37,8,8,0,0,1-2.47-6.08,8.05,8.05,0,0,1,2.47-6.06,8.65,8.65,0,0,1,10.88-.86,7.49,7.49,0,0,1,2.9,4.08l-3.22.94a4.44,4.44,0,0,0-1.68-2.58,5.28,5.28,0,0,0-6.59.63,5.86,5.86,0,0,0,0,7.74,5,5,0,0,0,3.71,1.46A4.54,4.54,0,0,0,207,46.53Z"/><path class="cls-5" d="M224.48,51.75a7.75,7.75,0,0,1-4,1.23,5.31,5.31,0,0,1-5.78-5.9V39.31h-3.45V36.53h3.45v-5h3.36v5h5.48v2.78H218.1v7.54a3.08,3.08,0,0,0,.71,2.21,2.49,2.49,0,0,0,1.93.76,4.86,4.86,0,0,0,2.71-.87Z"/><path class="cls-5" d="M242.41,52.53h-3.36V50.69a8.12,8.12,0,0,1-11.39-.08,8.29,8.29,0,0,1-2.34-6.08,8.3,8.3,0,0,1,2.35-6.06,7.58,7.58,0,0,1,5.58-2.39,7.67,7.67,0,0,1,5.8,2.29V36.53h3.36Zm-4.93-4.05a5.75,5.75,0,0,0,0-7.9,5.14,5.14,0,0,0-3.68-1.53,5,5,0,0,0-3.74,1.5,5.41,5.41,0,0,0-1.48,4,5.4,5.4,0,0,0,1.48,4A5,5,0,0,0,233.8,50,5.14,5.14,0,0,0,237.48,48.48Z"/><path class="cls-5" d="M258.08,36.47l-.23,3.22q-.25,0-.93,0a5.44,5.44,0,0,0-4.51,1.92,8.18,8.18,0,0,0-1.55,5.3v5.65H247.5v-16h3.36V40A6.81,6.81,0,0,1,257,36.34,3.85,3.85,0,0,1,258.08,36.47Z"/></g></g></svg>