<?xml version="1.0" encoding="utf-8"?>
<!-- Generator: Adobe Illustrator 25.4.1, SVG Export Plug-In . SVG Version: 6.00 Build 0)  -->
<svg version="1.1" id="Capa_1" xmlns="http://www.w3.org/2000/svg" xmlns:xlink="http://www.w3.org/1999/xlink" x="0px" y="0px"
	 viewBox="0 0 1037 273" style="enable-background:new 0 0 1037 273;" xml:space="preserve">
<style type="text/css">
	.st0{fill:#FFDF3F;}
	.st1{fill:#FFBE4E;}
	.st2{enable-background:new    ;}
	.st3{fill:#FFFFFF;}
</style>
<g id="Capa_2_00000020368391834790383900000005642864365652808887_">
	<g id="Background2">
		<path class="st0" d="M136.5,253C72.2,253,20,200.8,20,136.5S72.2,20,136.5,20h764c64.3,0,116.5,52.2,116.5,116.5
			S964.8,253,900.5,253H136.5z"/>
		<path class="st1" d="M900.5,253c64.3,0,116.5-52.2,116.5-116.5S964.8,20,900.5,20H202v233H900.5z"/>
		<g class="st2">
			<path class="st3" d="M337.6,79.2h3c9.9,0,19.6,3.4,29.1,10.3c8.4,6.9,13.9,14.6,16.7,23l-0.3,0.1H367c-4.4-7-10.5-11.8-18.1-14.3
				c-3.1-0.9-6-1.4-8.6-1.4h-1c-0.1,0-0.1,0-0.1-0.1l-0.3,0.1h-1c-7.4,0-14.5,3-21.2,8.9c-6.6,6.8-9.9,14.2-9.9,22.1v0.7
				c0,0.2,0,0.4-0.1,0.6c0.1,0.1,0.1,0.3,0.1,0.6v0.6c0,6.8,2.5,13.4,7.6,19.8c7,7.6,15.2,11.5,24.6,11.5c11.3,0,20.6-5.2,27.9-15.6
				c0-0.1,0-0.1,0.1-0.1h19.1l0.3,0.1c-1.6,4.3-3.8,8.4-6.6,12.4c-6.8,9.1-15.6,15.4-26.5,18.9c-4.7,1.3-8.8,2-12.4,2h-3.6
				c-10.4,0-20.7-4-30.8-11.9c-5.6-5.4-9.1-9.6-10.6-12.7c-4.6-8.1-6.9-16.1-6.9-24v-3c0-11.4,4.4-22.2,13.1-32.5
				c5.1-5.1,9.8-8.7,14.2-10.8C323.8,81,330.9,79.2,337.6,79.2z"/>
			<path class="st3" d="M424.4,110.9h2.4c8.8,0,16.9,3.7,24.2,11.2c5.9,6.9,8.9,14.4,8.9,22.6v0.6c0,11.5-5.1,21-15.4,28.4
				c-5.8,3.8-12.1,5.7-18.7,5.7h-0.6c-8.5,0-16.2-3.1-23-9.3c-7.2-7.3-10.8-15.2-10.8-23.8v-2.4c0-8.6,3.7-16.6,11-24.1
				C409.6,113.8,416.9,110.9,424.4,110.9z M425.4,129.2h-0.6c-5.3,0-9.8,2.8-13.3,8.4c-1.3,2.8-1.9,5.3-1.9,7.5
				c0,6.3,3.1,11.1,9.3,14.5c2.2,1,4.4,1.5,6.4,1.5h0.8c5.9,0,10.5-2.9,13.9-8.7c1.2-2.2,1.7-4.5,1.7-6.9v-0.8
				c0-5.8-2.9-10.4-8.7-13.9c-2.4-1.1-4.5-1.6-6.4-1.6h-0.7c-0.1,0-0.1,0-0.1-0.1L425.4,129.2z"/>
			<path class="st3" d="M497.7,112.1h2.4c8.7,0,16.6,3.7,23.8,11c5.8,6.8,8.7,14.2,8.7,22.3v33.8c0,0.2-0.1,0.3-0.3,0.3H515
				c-0.2,0-0.3-0.1-0.3-0.3v-33.8c0-5.7-2.9-10.2-8.6-13.7c-2.3-1.1-4.4-1.6-6.3-1.6h-0.7c-0.1,0-0.1,0-0.1-0.1l-0.3,0.1h-0.6
				c-5.3,0-9.6,2.8-13.1,8.3c-1.3,2-1.9,5.5-1.9,10.5v30.2c0,0.2-0.1,0.3-0.3,0.3h-17.2c-0.2,0-0.3-0.1-0.3-0.3v-34.5
				c0-8.5,3.6-16.4,10.7-23.7C483,115,490.3,112.1,497.7,112.1z"/>
			<path class="st3" d="M539.8,79.2h17.1c0.2,0,0.3,0.1,0.3,0.3v33.1H578c0.2,0,0.3,0.1,0.3,0.3v17.3c0,0.2-0.1,0.3-0.3,0.3h-20.8
				v12.7c0,5.6,1,9.5,2.9,11.7c3.1,4.6,7.8,6.8,14.2,6.8h3.8c0.2,0,0.3,0.1,0.3,0.3v17.1c0,0.2-0.1,0.3-0.3,0.3h-6.5
				c-7.6,0-14.9-3.1-21.9-9.4c-6.7-7.1-10.1-14.7-10.1-22.8V79.5C539.5,79.3,539.6,79.2,539.8,79.2z"/>
			<path class="st3" d="M617.4,112.6h2.4c8.6,0,16.4,3.6,23.6,10.9c5.8,6.7,8.7,14.1,8.7,22.1v33.6c0,0.2-0.1,0.3-0.3,0.3h-17.2
				c-0.2,0-0.3-0.1-0.3-0.3v-3.6c-5,2.6-10.1,3.8-15.4,3.8h-0.6c-8.2,0-15.7-3-22.5-9.1c-7-7.1-10.5-14.8-10.5-23.2v-2.4
				c0-8.3,3.6-16.2,10.8-23.5C603,115.4,610.1,112.6,617.4,112.6z M618.4,130.4h-0.6c-5.2,0-9.5,2.7-13,8.2
				c-1.3,2.7-1.9,5.1-1.9,7.3c0,6.1,3,10.8,9.1,14.2c2.2,1,4.3,1.5,6.2,1.5h0.8c5.8,0,10.3-2.8,13.5-8.5c1.2-2.2,1.7-4.4,1.7-6.8
				v-0.8c0-5.6-2.8-10.1-8.5-13.5c-2.3-1.1-4.4-1.6-6.2-1.6h-0.7c-0.1,0-0.1,0-0.1-0.1L618.4,130.4z"/>
			<path class="st3" d="M691.6,111.9h2.4c7.1,0,14,2.6,20.6,7.9c5.3,4.4,9,10.3,11,17.7l-0.3,0.1h-18.8c-3.7-5.2-8-7.8-12.8-7.8
				h-0.7c-0.1,0-0.1,0-0.1-0.1l-0.3,0.1h-0.6c-5.2,0-9.6,2.8-13.1,8.3c-1.3,2.7-1.9,5.2-1.9,7.4c0,6.2,3,11,9.1,14.3
				c2.2,1,4.3,1.5,6.3,1.5h0.8c5.3,0,9.7-2.6,13.4-7.8h18.8l0.3,0.1c-2.1,7.8-6,13.8-11.6,18.2c-6.4,5-13.4,7.5-21,7.5h-0.6
				c-8.3,0-15.9-3-22.7-9.1c-7.1-7.2-10.6-15-10.6-23.5v-2.4c0-8.4,3.6-16.3,10.9-23.7C677,114.8,684.2,111.9,691.6,111.9z"/>
			<path class="st3" d="M732.6,79.2h17.1c0.2,0,0.3,0.1,0.3,0.3v33.1h20.8c0.2,0,0.3,0.1,0.3,0.3v17.3c0,0.2-0.1,0.3-0.3,0.3H750
				v12.7c0,5.6,1,9.5,2.9,11.7c3.1,4.6,7.8,6.8,14.2,6.8h3.8c0.2,0,0.3,0.1,0.3,0.3v17.1c0,0.2-0.1,0.3-0.3,0.3h-6.5
				c-7.6,0-14.9-3.1-21.9-9.4c-6.7-7.1-10.1-14.7-10.1-22.8V79.5C732.4,79.3,732.5,79.2,732.6,79.2z"/>
			<path class="st3" d="M810.3,112.6h2.4c8.6,0,16.4,3.6,23.6,10.9c5.8,6.7,8.7,14.1,8.7,22.1v33.6c0,0.2-0.1,0.3-0.3,0.3h-17.2
				c-0.2,0-0.3-0.1-0.3-0.3v-3.6c-5,2.6-10.1,3.8-15.4,3.8h-0.6c-8.2,0-15.7-3-22.5-9.1c-7-7.1-10.5-14.8-10.5-23.2v-2.4
				c0-8.3,3.6-16.2,10.8-23.5C795.8,115.4,803,112.6,810.3,112.6z M811.3,130.4h-0.6c-5.2,0-9.5,2.7-13,8.2
				c-1.3,2.7-1.9,5.1-1.9,7.3c0,6.1,3,10.8,9.1,14.2c2.2,1,4.3,1.5,6.2,1.5h0.8c5.8,0,10.3-2.8,13.5-8.5c1.2-2.2,1.7-4.4,1.7-6.8
				v-0.8c0-5.6-2.8-10.1-8.5-13.5c-2.3-1.1-4.4-1.6-6.2-1.6h-0.7c-0.1,0-0.1,0-0.1-0.1L811.3,130.4z"/>
			<path class="st3" d="M884.7,111.4h20.8c0.2,0,0.3,0.1,0.3,0.3v17.5c0,0.2-0.1,0.3-0.3,0.3h-16.6c-6.4,0-10.8,1.3-13.1,3.9
				c-1.9,1.4-3.2,3.2-4.1,5.2c-1.1,2-1.6,5.2-1.6,9.8v30.9c0,0.2-0.1,0.3-0.3,0.3h-17.5c-0.2,0-0.3-0.1-0.3-0.3V144
				c0-8.5,3.7-16.4,11-23.9C870.1,114.3,877.3,111.4,884.7,111.4z"/>
		</g>
	</g>
</g>
</svg>
