<svg xmlns="http://www.w3.org/2000/svg" viewBox="0 0 74.42 74.42"><defs><style>.cls-1{fill:#9869f3;}</style></defs><g id="Capa_2" data-name="Capa 2"><g id="IMG"><path class="cls-1" d="M34.25,0h5.92c0,.22.22.15.34.16A34.61,34.61,0,0,1,48.33,1.7a37.29,37.29,0,0,1,26,33.46A36.21,36.21,0,0,1,73.1,47.05a37,37,0,0,1-9.6,16.48,37.09,37.09,0,0,1-23,10.73c-.12,0-.3-.06-.34.16H34.25c0-.22-.21-.15-.34-.16a35.4,35.4,0,0,1-7.82-1.54,37.29,37.29,0,0,1-26-33.46,36.1,36.1,0,0,1,.49-8.43A37.23,37.23,0,0,1,22,3.26,36.33,36.33,0,0,1,33.91.16C34,.15,34.21.22,34.25,0ZM14,54.55H60.69c0-.15-.13-.21-.2-.29q-7.79-8.38-15.57-16.78c-.22-.24-.34-.22-.57,0L37.5,43.17c-.24.21-.36.18-.59,0-2.26-1.89-4.53-3.77-6.79-5.67-.26-.22-.39-.25-.65,0q-6.64,7.32-13.3,14.61ZM60.74,19.26h-47l.34.29q11.37,9.28,22.74,18.57a.55.55,0,0,0,.86,0L56.23,22.94ZM13.69,24.53V48.92l.13-.12q6.27-6.87,12.56-13.73c.25-.28.24-.4-.05-.63Q21.64,30.8,17,27.11Zm47.07,0a.76.76,0,0,0-.16.1q-6.3,5-12.61,9.89c-.25.19-.15.29,0,.45L60.52,48.41c.06.06.1.17.24.14Z"/></g></g></svg>