<svg xmlns="http://www.w3.org/2000/svg" viewBox="0 0 73.99 72.83"><defs><style>.cls-1{fill:#9869f3;}</style></defs><g id="Capa_2" data-name="Capa 2"><g id="IMG"><path class="cls-1" d="M43.77,53.8a35.27,35.27,0,0,0,6-1.23c6.1-2,9.5-6.18,10.51-12.42a21.28,21.28,0,0,0-.11-8.74,13.61,13.61,0,0,0-2.84-5.49A1.09,1.09,0,0,1,57,24.75,13.88,13.88,0,0,0,56.68,16a.84.84,0,0,0-1-.64,12,12,0,0,0-4.41,1.1A25.76,25.76,0,0,0,46.84,19a1.36,1.36,0,0,1-1.22.19,35.13,35.13,0,0,0-17.17,0,1.47,1.47,0,0,1-1.3-.23,20.28,20.28,0,0,0-7.91-3.46c-1.52-.23-1.69-.14-2.11,1.31A13.67,13.67,0,0,0,17,24.82a1,1,0,0,1-.23,1,15.2,15.2,0,0,0-3.35,11.33,23,23,0,0,0,1.41,7c1.9,4.78,5.59,7.45,10.41,8.77a35.76,35.76,0,0,0,4.94.89A8.24,8.24,0,0,0,28,58.41c-.06.37-.28.47-.56.59a7.64,7.64,0,0,1-10.21-3.14A7.74,7.74,0,0,0,12,51.94c-.76-.14-1.74-.24-2.08.47s.57,1.26,1.14,1.62a8.89,8.89,0,0,1,3.88,4.76c1.5,4.3,5.56,6,9.87,5.67.82-.06,1.63-.17,2.44-.31.36-.06.54-.07.54.38,0,2.17.06,4.34,0,6.52,0,1.43-1.23,2.12-2.73,1.61A34.55,34.55,0,0,1,13.7,66.32C4.2,58.31-.4,48,0,35.64a37,37,0,0,1,73.12-6.36A37.38,37.38,0,0,1,49.23,72.56c-2,.71-3.08,0-3.07-2.14,0-3.35.05-6.7,0-10.05A9,9,0,0,0,43.77,53.8Z"/></g></g></svg>