<svg xmlns="http://www.w3.org/2000/svg" viewBox="0 0 84.14 52.51"><defs><style>.cls-1{fill:#ac89ff;}.cls-2{fill:#f0f696;}</style></defs><g id="Capa_2" data-name="Capa 2"><g id="texto"><path class="cls-1" d="M44.46,52.13H30.34V36.48H17.12V52.13H3V9.32H17.12V24.59H30.34V9.32H44.46Z"/><path class="cls-1" d="M61.81,5.14A7,7,0,0,1,64,10.28a6.94,6.94,0,0,1-2.14,5.21,7.47,7.47,0,0,1-5.4,2.08A7.37,7.37,0,0,1,51,15.49a7,7,0,0,1-2.1-5.21A7.08,7.08,0,0,1,51,5.14,7.22,7.22,0,0,1,56.41,3,7.32,7.32,0,0,1,61.81,5.14Zm-12.23,47V19.67H63.31V52.13Z"/><path class="cls-1" d="M84.08,11.3,82.8,36.22H69.7L68.42,11.3v-2H84.08ZM82,40.44A7,7,0,0,1,82,50.5a7.47,7.47,0,0,1-5.37,2,7.34,7.34,0,0,1-5.33-2,7.09,7.09,0,0,1,0-10.06,7.17,7.17,0,0,1,5.3-2.11A7.3,7.3,0,0,1,82,40.44Z"/><path class="cls-2" d="M41.46,49.13H27.34V33.48H14.12V49.13H0V6.32H14.12V21.59H27.34V6.32H41.46Z"/><path class="cls-2" d="M58.81,2.14A7,7,0,0,1,61,7.28a6.94,6.94,0,0,1-2.14,5.21,7.47,7.47,0,0,1-5.4,2.08A7.37,7.37,0,0,1,48,12.49a7,7,0,0,1-2.1-5.21A7.08,7.08,0,0,1,48,2.14,7.22,7.22,0,0,1,53.41,0,7.32,7.32,0,0,1,58.81,2.14Zm-12.23,47V16.67H60.31V49.13Z"/><path class="cls-2" d="M81.08,8.3,79.8,33.22H66.7L65.42,8.3v-2H81.08ZM79,37.44A7,7,0,0,1,79,47.5a7.47,7.47,0,0,1-5.37,2,7.34,7.34,0,0,1-5.33-2,7.09,7.09,0,0,1,0-10.06,7.17,7.17,0,0,1,5.3-2.11A7.3,7.3,0,0,1,79,37.44Z"/></g></g></svg>