<?xml version="1.0" encoding="utf-8"?>
<!-- Generator: Adobe Illustrator 25.4.1, SVG Export Plug-In . SVG Version: 6.00 Build 0)  -->
<svg version="1.1" xmlns="http://www.w3.org/2000/svg" xmlns:xlink="http://www.w3.org/1999/xlink" x="0px" y="0px"
	 viewBox="0 0 301.5 67.5" style="enable-background:new 0 0 301.5 67.5;" xml:space="preserve">
<style type="text/css">
	.st0{fill:none;stroke:#0DD0FE;stroke-width:2;stroke-miterlimit:10;}
	.st1{fill:none;stroke:#0DD0FE;stroke-miterlimit:10;}
</style>
<g id="Capa_2">
</g>
<g id="Capa_1">
	<g id="Capa_2_00000135657128011084711760000006890063209208535468_">
		<g id="IMG">
			<circle class="st0" cx="267.8" cy="33.8" r="31.8"/>
			<circle class="st0" cx="152.8" cy="33.8" r="31.8"/>
			<circle class="st0" cx="33.8" cy="33.8" r="31.8"/>
			<line class="st0" x1="65.5" y1="33.8" x2="121.3" y2="33.8"/>
			<line class="st0" x1="184.5" y1="33.8" x2="236" y2="33.8"/>
			<path class="st1" d="M38.7,51.4c-0.5-9.8,6.7-16.3,6.7-16.3L34,10.5L22.4,35.1c0,0,7.6,6,6.8,16.3"/>
			<line class="st1" x1="33.9" y1="34.3" x2="34" y2="10.5"/>
			<circle class="st1" cx="34" cy="34.2" r="2.8"/>
			<rect x="22.4" y="51.4" class="st1" width="23.7" height="5.1"/>
			<path class="st1" d="M164.1,47.8h-24.1c-3,0-5.5-2.5-5.5-5.5V25c0-3,2.5-5.5,5.5-5.5h24.1c3,0,5.5,2.5,5.5,5.5v17.4
				C169.6,45.4,167.1,47.8,164.1,47.8z"/>
			<line class="st1" x1="170.4" y1="39.5" x2="134.6" y2="39.5"/>
			<line class="st1" x1="152.1" y1="47.8" x2="152.1" y2="53.5"/>
			<line class="st1" x1="142.9" y1="52.8" x2="160.9" y2="52.8"/>
			<polygon class="st1" points="267.6,52.5 267.6,31.6 284.8,22.6 284.8,42.8 			"/>
			<polygon class="st1" points="267.4,52.5 267.4,31.6 250.2,22.6 250.2,42.8 			"/>
			<polyline class="st1" points="250.2,22.6 267.4,12.5 284.8,22.6 			"/>
			<polygon class="st1" points="259.4,36.9 259.4,27.7 267.4,23.4 274.9,27.8 274.9,37.2 267.6,41.2 			"/>
			<line class="st1" x1="250.2" y1="42.5" x2="251.5" y2="41.8"/>
			<line class="st1" x1="253.7" y1="40.4" x2="257" y2="38.4"/>
			<line class="st1" x1="258.1" y1="37.7" x2="259.4" y2="36.9"/>
			<path class="st1" d="M274.9,37.2c0.5,0.1,1,0.3,1.4,0.6"/>
			<path class="st1" d="M278.7,39.1c1.2,0.7,2.5,1.5,3.6,2.1"/>
			<path class="st1" d="M283.5,42l1.3,0.8"/>
			<line class="st1" x1="267.4" y1="23.4" x2="267.4" y2="21.9"/>
			<line class="st1" x1="267.4" y1="19.2" x2="267.4" y2="15.3"/>
			<line class="st1" x1="267.4" y1="14" x2="267.4" y2="12.5"/>
		</g>
	</g>
</g>
</svg>
