<svg xmlns="http://www.w3.org/2000/svg" viewBox="0 0 301.5 67.5"><defs><style>.cls-1,.cls-2,.cls-4,.cls-5,.cls-6{fill:none;stroke:#fff;stroke-miterlimit:10;}.cls-1{stroke-width:4px;}.cls-2,.cls-4,.cls-5,.cls-6{stroke-width:2px;}.cls-3{fill:#fff;}.cls-4{stroke-dasharray:2.58 2.58;}.cls-5{stroke-dasharray:2.78 2.78;}.cls-6{stroke-dasharray:2.63 2.63;}</style></defs><g id="Capa_2" data-name="Capa 2"><g id="IMG"><circle class="cls-1" cx="267.75" cy="33.75" r="31.75"/><circle class="cls-1" cx="152.75" cy="33.75" r="31.75"/><circle class="cls-1" cx="33.75" cy="33.75" r="31.75"/><line class="cls-1" x1="65.5" y1="33.75" x2="121.26" y2="33.75"/><line class="cls-1" x1="184.5" y1="33.75" x2="236" y2="33.75"/><path class="cls-2" d="M38.66,51.39c-.46-9.76,6.68-16.26,6.68-16.26L34,10.5,22.4,35.13s7.6,6,6.82,16.26"/><line class="cls-2" x1="33.87" y1="34.34" x2="34.02" y2="10.5"/><circle class="cls-3" cx="34.02" cy="34.2" r="2.79"/><rect class="cls-3" x="22.4" y="51.39" width="23.7" height="5.11"/><path class="cls-2" d="M164.11,47.84H140.06a5.48,5.48,0,0,1-5.48-5.48V25a5.48,5.48,0,0,1,5.48-5.48h24.05A5.48,5.48,0,0,1,169.59,25V42.36A5.48,5.48,0,0,1,164.11,47.84Z"/><line class="cls-2" x1="170.42" y1="39.51" x2="134.58" y2="39.51"/><line class="cls-2" x1="152.08" y1="47.84" x2="152.08" y2="53.5"/><line class="cls-2" x1="142.91" y1="52.84" x2="160.85" y2="52.84"/><polygon class="cls-2" points="267.65 52.5 267.65 31.56 284.75 22.58 284.75 42.8 267.65 52.5"/><polygon class="cls-2" points="267.35 52.5 267.35 31.56 250.25 22.58 250.25 42.8 267.35 52.5"/><polyline class="cls-2" points="250.25 22.58 267.35 12.5 284.75 22.58"/><polygon class="cls-2" points="259.41 36.93 259.41 27.71 267.35 23.38 274.91 27.75 274.91 37.18 267.65 41.19 259.41 36.93"/><line class="cls-2" x1="250.25" y1="42.53" x2="251.53" y2="41.75"/><line class="cls-4" x1="253.73" y1="40.4" x2="257.03" y2="38.38"/><line class="cls-2" x1="258.13" y1="37.71" x2="259.41" y2="36.93"/><path class="cls-2" d="M274.91,37.18a3.92,3.92,0,0,1,1.37.59"/><path class="cls-5" d="M278.7,39.14c1.2.7,2.5,1.49,3.59,2.14"/><path class="cls-2" d="M283.48,42l1.27.79"/><line class="cls-2" x1="267.35" y1="23.38" x2="267.35" y2="21.88"/><line class="cls-6" x1="267.35" y1="19.25" x2="267.35" y2="15.31"/><line class="cls-2" x1="267.35" y1="14" x2="267.35" y2="12.5"/></g></g></svg>