<svg xmlns="http://www.w3.org/2000/svg" viewBox="0 0 74.68 74.69"><defs><style>.cls-1{fill:#9869f3;}</style></defs><g id="Capa_2" data-name="Capa 2"><g id="IMG"><path class="cls-1" d="M37.41,0A37.35,37.35,0,1,1,0,37.26,37.31,37.31,0,0,1,37.41,0ZM41,33c0-1.08,0-1.92,0-2.76,0-.55-.1-.77-.7-.76-2.37,0-4.73,0-7.09,0-.53,0-.68.16-.68.69q0,12,0,24c0,.58.16.75.73.74,2.25,0,4.51-.05,6.76,0,.76,0,1-.14,1-1,0-4.48,0-9,0-13.44a4.9,4.9,0,0,1,1.29-3.5,4.37,4.37,0,0,1,4.52-1.32,3.81,3.81,0,0,1,2.8,3.08,11.51,11.51,0,0,1,.3,3c0,4.1,0,8.2,0,12.29,0,.69.21.87.88.86,2.25,0,4.51,0,6.76,0,.64,0,.83-.18.83-.82,0-4.64,0-9.29,0-13.93a15.25,15.25,0,0,0-.74-5,8.54,8.54,0,0,0-6.93-6.14c-3.69-.63-6.91.18-9.23,3.37C41.3,32.59,41.19,32.71,41,33ZM27.81,42.24c0-4,0-7.92,0-11.89,0-.59-.1-.86-.79-.85-2.31,0-4.62,0-6.92,0-.56,0-.76.15-.75.73q0,12,0,23.94c0,.62.21.79.8.78,2.26,0,4.51,0,6.76,0,.72,0,.92-.19.91-.9C27.79,50.12,27.81,46.18,27.81,42.24ZM23.6,26a4.45,4.45,0,0,0,4.64-3.29,4.32,4.32,0,0,0-2.89-5.22c-2.58-.82-5.31.28-6.18,2.48a4.08,4.08,0,0,0-.21.78C18.44,23.73,20.47,26,23.6,26Z"/></g></g></svg>