<svg xmlns="http://www.w3.org/2000/svg" viewBox="0 0 266.54 68.1"><defs><style>.cls-1{fill:#ac89ff;}.cls-2{fill:#f0f696;}</style></defs><g id="Capa_2" data-name="Capa 2"><g id="texto"><path class="cls-1" d="M26.32,9.32a15.17,15.17,0,0,1,11.24,4.29,15.09,15.09,0,0,1,4.28,11.18,15.29,15.29,0,0,1-4.63,11.62Q32.57,40.82,25,40.82H17.12V52.13H3V9.32ZM22.74,30.15a5.5,5.5,0,0,0,3.74-1.37A4.52,4.52,0,0,0,28,25.23a4.13,4.13,0,0,0-1.56-3.29,5.65,5.65,0,0,0-3.74-1.31H17.12v9.52Z"/><path class="cls-1" d="M71.81,19.48l-.45,14.44H69.44q-5,0-7.66,1.85t-2.69,6.84v9.52H45.36V19.67H59.09v6.71q3.13-7.08,10.35-7.09A16.2,16.2,0,0,1,71.81,19.48Z"/><path class="cls-1" d="M104.52,23.54a15.88,15.88,0,0,1,5.37,12.36,15.85,15.85,0,0,1-5.37,12.36,18.88,18.88,0,0,1-13.1,4.83,18.85,18.85,0,0,1-13.09-4.83A15.85,15.85,0,0,1,73,35.9a15.88,15.88,0,0,1,5.37-12.36,18.84,18.84,0,0,1,13.09-4.82A18.87,18.87,0,0,1,104.52,23.54Zm-9.3,16.51a6.46,6.46,0,0,0,0-8.3,5,5,0,0,0-7.6,0,6.49,6.49,0,0,0,0,8.3,5,5,0,0,0,7.6,0Z"/><path class="cls-1" d="M110.59,57.11a15,15,0,0,0,1.85.19q2,0,2-2.61v-35h13.74v36.1a12.31,12.31,0,0,1-3.29,8.95,11.64,11.64,0,0,1-8.72,3.38,16.39,16.39,0,0,1-7.22-1.66Zm16.07-52a7,7,0,0,1,2.14,5.14,7,7,0,0,1-2.14,5.21,7.47,7.47,0,0,1-5.4,2.08,7.37,7.37,0,0,1-5.37-2.08,7,7,0,0,1-2.11-5.21,7.09,7.09,0,0,1,2.11-5.14A7.22,7.22,0,0,1,121.26,3,7.32,7.32,0,0,1,126.66,5.14Z"/><path class="cls-1" d="M145.34,39.16q1.16,3.77,4.8,3.77a5.84,5.84,0,0,0,2.87-.7,3.62,3.62,0,0,0,1.73-1.92l12.2,2.36a14.76,14.76,0,0,1-6.29,7.8,20.16,20.16,0,0,1-10.51,2.62,18.38,18.38,0,0,1-12.88-4.83A16,16,0,0,1,132,35.9a16,16,0,0,1,5.27-12.36,18.29,18.29,0,0,1,12.81-4.82q7.86,0,12.52,4.76t4.67,13.7v2Zm.07-6.9h8.82a4.54,4.54,0,0,0-1.6-2.4,4.2,4.2,0,0,0-2.56-.86A4.65,4.65,0,0,0,145.41,32.26Z"/><path class="cls-1" d="M204.7,39.42a14.58,14.58,0,0,1-5.69,9.9,18.22,18.22,0,0,1-11.5,3.77,18.68,18.68,0,0,1-13-4.83,15.88,15.88,0,0,1-5.33-12.36,15.91,15.91,0,0,1,5.33-12.36,18.67,18.67,0,0,1,13-4.82A18.29,18.29,0,0,1,199,22.42a14.33,14.33,0,0,1,5.65,9.78l-12.46,2.3a5.38,5.38,0,0,0-1.59-3.29A4.37,4.37,0,0,0,187.51,30a4.65,4.65,0,0,0-3.74,1.73,6.74,6.74,0,0,0,0,8.3,4.62,4.62,0,0,0,3.74,1.73,4.3,4.3,0,0,0,3.07-1.21,5.57,5.57,0,0,0,1.59-3.33Z"/><path class="cls-1" d="M232.81,50.72a20.07,20.07,0,0,1-9.65,2.37q-6.51,0-9.9-3.48t-3.39-9.49v-9.9H206V19.67h3.89V9.32h13.74V19.67h7.6V30.22h-7.6v8.17a3,3,0,0,0,.83,2.37,4,4,0,0,0,2.62.7,6.83,6.83,0,0,0,3.45-.77Z"/><path class="cls-1" d="M247,41.27a3.3,3.3,0,0,0,1.5,1.88,4.58,4.58,0,0,0,2.4.67c1.7,0,2.55-.42,2.55-1.27a1,1,0,0,0-.57-1,8.31,8.31,0,0,0-2-.45l-6.46-1q-9.9-1.53-9.9-9.84a9.82,9.82,0,0,1,4.38-8.5,18.4,18.4,0,0,1,10.83-3.06q13.41,0,16.1,8.75l-12,2.36a3.56,3.56,0,0,0-1.27-1.72,4,4,0,0,0-2.62-.83c-1.54,0-2.3.42-2.3,1.27,0,.64.55,1.07,1.66,1.28l7.28,1.34q10,1.86,10,10.87a9.2,9.2,0,0,1-4.44,8.14,20.18,20.18,0,0,1-11.27,2.91,23.94,23.94,0,0,1-11.12-2.3,10.6,10.6,0,0,1-5.62-7Z"/><path class="cls-2" d="M23.32,6.32a15.17,15.17,0,0,1,11.24,4.29,15.09,15.09,0,0,1,4.28,11.18,15.29,15.29,0,0,1-4.63,11.62Q29.58,37.82,22,37.82H14.12V49.13H0V6.32ZM19.74,27.15a5.5,5.5,0,0,0,3.74-1.37A4.52,4.52,0,0,0,25,22.23a4.13,4.13,0,0,0-1.56-3.29,5.65,5.65,0,0,0-3.74-1.31H14.12v9.52Z"/><path class="cls-2" d="M68.81,16.48l-.45,14.44H66.44q-5,0-7.66,1.85t-2.69,6.84v9.52H42.36V16.67H56.09v6.71q3.13-7.08,10.35-7.09A16.2,16.2,0,0,1,68.81,16.48Z"/><path class="cls-2" d="M101.52,20.54a15.88,15.88,0,0,1,5.37,12.36,15.85,15.85,0,0,1-5.37,12.36,18.88,18.88,0,0,1-13.1,4.83,18.85,18.85,0,0,1-13.09-4.83A15.85,15.85,0,0,1,70,32.9a15.88,15.88,0,0,1,5.37-12.36,18.84,18.84,0,0,1,13.09-4.82A18.87,18.87,0,0,1,101.52,20.54Zm-9.3,16.51a6.46,6.46,0,0,0,0-8.3,5,5,0,0,0-7.6,0,6.49,6.49,0,0,0,0,8.3,5,5,0,0,0,7.6,0Z"/><path class="cls-2" d="M107.59,54.11a15,15,0,0,0,1.85.19q2,0,2-2.61v-35h13.74v36.1a12.31,12.31,0,0,1-3.29,8.95,11.64,11.64,0,0,1-8.72,3.38,16.39,16.39,0,0,1-7.22-1.66Zm16.07-52a7,7,0,0,1,2.14,5.14,7,7,0,0,1-2.14,5.21,7.47,7.47,0,0,1-5.4,2.08,7.37,7.37,0,0,1-5.37-2.08,7,7,0,0,1-2.11-5.21,7.09,7.09,0,0,1,2.11-5.14A7.22,7.22,0,0,1,118.26,0,7.32,7.32,0,0,1,123.66,2.14Z"/><path class="cls-2" d="M142.34,36.16q1.16,3.77,4.8,3.77a5.84,5.84,0,0,0,2.87-.7,3.62,3.62,0,0,0,1.73-1.92l12.2,2.36a14.76,14.76,0,0,1-6.29,7.8,20.16,20.16,0,0,1-10.51,2.62,18.38,18.38,0,0,1-12.88-4.83A16,16,0,0,1,129,32.9a16,16,0,0,1,5.27-12.36,18.29,18.29,0,0,1,12.81-4.82q7.86,0,12.52,4.76t4.67,13.7v2Zm.07-6.9h8.82a4.54,4.54,0,0,0-1.6-2.4,4.2,4.2,0,0,0-2.56-.86A4.65,4.65,0,0,0,142.41,29.26Z"/><path class="cls-2" d="M201.7,36.42a14.58,14.58,0,0,1-5.69,9.9,18.22,18.22,0,0,1-11.5,3.77,18.68,18.68,0,0,1-13-4.83,15.88,15.88,0,0,1-5.33-12.36,15.91,15.91,0,0,1,5.33-12.36,18.67,18.67,0,0,1,13-4.82A18.29,18.29,0,0,1,196,19.42a14.33,14.33,0,0,1,5.65,9.78l-12.46,2.3a5.38,5.38,0,0,0-1.59-3.29A4.37,4.37,0,0,0,184.51,27a4.65,4.65,0,0,0-3.74,1.73,6.74,6.74,0,0,0,0,8.3,4.62,4.62,0,0,0,3.74,1.73,4.3,4.3,0,0,0,3.07-1.21,5.57,5.57,0,0,0,1.59-3.33Z"/><path class="cls-2" d="M229.81,47.72a20.07,20.07,0,0,1-9.65,2.37q-6.51,0-9.9-3.48t-3.39-9.49v-9.9H203V16.67h3.89V6.32h13.74V16.67h7.6V27.22h-7.6v8.17a3,3,0,0,0,.83,2.37,4,4,0,0,0,2.62.7,6.83,6.83,0,0,0,3.45-.77Z"/><path class="cls-2" d="M244,38.27a3.3,3.3,0,0,0,1.5,1.88,4.58,4.58,0,0,0,2.4.67c1.7,0,2.55-.42,2.55-1.27a1,1,0,0,0-.57-1,8.31,8.31,0,0,0-2-.45l-6.46-1q-9.9-1.53-9.9-9.84a9.82,9.82,0,0,1,4.38-8.5,18.4,18.4,0,0,1,10.83-3.06q13.41,0,16.1,8.75l-12,2.36a3.56,3.56,0,0,0-1.27-1.72,4,4,0,0,0-2.62-.83c-1.54,0-2.3.42-2.3,1.27,0,.64.55,1.07,1.66,1.28l7.28,1.34q10,1.86,10,10.87a9.2,9.2,0,0,1-4.44,8.14,20.18,20.18,0,0,1-11.27,2.91,23.94,23.94,0,0,1-11.12-2.3,10.6,10.6,0,0,1-5.62-7Z"/></g></g></svg>