<svg xmlns="http://www.w3.org/2000/svg" viewBox="0 0 667.77 67.46"><defs><style>.cls-1{fill:#ac89ff;}.cls-2{fill:#f0f696;}</style></defs><g id="Capa_2" data-name="Capa 2"><g id="texto"><path class="cls-1" d="M36.54,50.41a15.84,15.84,0,0,1-5.81,9Q26.32,62.8,18.52,62.8A16,16,0,0,1,7.34,58.87,12.56,12.56,0,0,1,3,49.19a10.92,10.92,0,0,1,2.68-7.47,15.4,15.4,0,0,1,7.54-4.48V34.56H27l-.07,10.93H21.27a5.75,5.75,0,0,0-3.16.76,2.28,2.28,0,0,0-1.18,2,2.74,2.74,0,0,0,.73,2,2.58,2.58,0,0,0,1.95.77,2.75,2.75,0,0,0,2.08-.93,4,4,0,0,0,1-2.46ZM15,30.73a6.77,6.77,0,0,1-2.14-5A6.69,6.69,0,0,1,15,20.67a7.41,7.41,0,0,1,5.36-2,7.33,7.33,0,0,1,5.34,2,6.78,6.78,0,0,1,2.08,5.07,6.85,6.85,0,0,1-2.11,5,7.24,7.24,0,0,1-5.31,2.11A7.31,7.31,0,0,1,15,30.73Z"/><path class="cls-1" d="M58.58,21.21V52.13H44.46V21.21h-13V9.32H71.62V21.21Z"/><path class="cls-1" d="M88,5.14a7,7,0,0,1,2.15,5.14A7,7,0,0,1,88,15.49a7.43,7.43,0,0,1-5.39,2.08,7.35,7.35,0,0,1-5.37-2.08,7,7,0,0,1-2.11-5.21,7.05,7.05,0,0,1,2.11-5.14A7.2,7.2,0,0,1,82.61,3,7.28,7.28,0,0,1,88,5.14Zm-12.23,47V19.67H89.51V52.13Z"/><path class="cls-1" d="M106.69,39.16q1.16,3.77,4.79,3.77a5.85,5.85,0,0,0,2.88-.7,3.56,3.56,0,0,0,1.72-1.92l12.21,2.36a14.73,14.73,0,0,1-6.3,7.8,20.14,20.14,0,0,1-10.51,2.62,18.34,18.34,0,0,1-12.87-4.83A16,16,0,0,1,93.34,35.9a16,16,0,0,1,5.27-12.36,18.26,18.26,0,0,1,12.81-4.82q7.86,0,12.52,4.76t4.67,13.7v2Zm.07-6.9h8.81a4.52,4.52,0,0,0-1.59-2.4,4.2,4.2,0,0,0-2.56-.86A4.65,4.65,0,0,0,106.76,32.26Z"/><path class="cls-1" d="M163.65,22.23q3.22,3.51,3.23,9.65V52.13H153.14V34.82a4.11,4.11,0,0,0-1-2.88,3.34,3.34,0,0,0-2.59-1.08,3.58,3.58,0,0,0-2.94,1.34,5.41,5.41,0,0,0-1.08,3.51V52.13H131.8V19.67h13.74v3.52a12.15,12.15,0,0,1,9.52-4.47A11.11,11.11,0,0,1,163.65,22.23Z"/><path class="cls-1" d="M183.61,39.16q1.15,3.77,4.8,3.77a5.84,5.84,0,0,0,2.87-.7A3.62,3.62,0,0,0,193,40.31l12.2,2.36a14.76,14.76,0,0,1-6.29,7.8,20.19,20.19,0,0,1-10.51,2.62,18.38,18.38,0,0,1-12.88-4.83,16,16,0,0,1-5.27-12.36,16,16,0,0,1,5.27-12.36,18.29,18.29,0,0,1,12.81-4.82q7.86,0,12.52,4.76t4.67,13.7v2Zm.07-6.9h8.81a4.47,4.47,0,0,0-1.59-2.4,4.2,4.2,0,0,0-2.56-.86A4.65,4.65,0,0,0,183.68,32.26Z"/><path class="cls-1" d="M220.35,41.27a3.3,3.3,0,0,0,1.5,1.88,4.58,4.58,0,0,0,2.4.67c1.7,0,2.55-.42,2.55-1.27a1,1,0,0,0-.57-1,8.54,8.54,0,0,0-2-.45l-6.45-1q-9.9-1.53-9.9-9.84a9.83,9.83,0,0,1,4.37-8.5A18.45,18.45,0,0,1,223,18.72q13.42,0,16.1,8.75l-12,2.36a3.53,3.53,0,0,0-1.28-1.72,4,4,0,0,0-2.61-.83c-1.54,0-2.3.42-2.3,1.27,0,.64.55,1.07,1.66,1.28l7.28,1.34q10,1.86,10,10.87a9.2,9.2,0,0,1-4.44,8.14,20.19,20.19,0,0,1-11.28,2.91,23.92,23.92,0,0,1-11.11-2.3,10.62,10.62,0,0,1-5.63-7Z"/><path class="cls-1" d="M291.78,52.13H278V48.62a12.17,12.17,0,0,1-9.52,4.47,11.07,11.07,0,0,1-8.59-3.52q-3.23-3.51-3.23-9.64V19.67h13.74V37a4.09,4.09,0,0,0,1,2.87A3.32,3.32,0,0,0,274,41,3.61,3.61,0,0,0,277,39.61,5.46,5.46,0,0,0,278,36.09V19.67h13.74Z"/><path class="cls-1" d="M328.1,22.23q3.22,3.51,3.23,9.65V52.13H317.59V34.82a4.11,4.11,0,0,0-1-2.88A3.34,3.34,0,0,0,314,30.86a3.58,3.58,0,0,0-2.94,1.34A5.41,5.41,0,0,0,310,35.71V52.13H296.25V19.67H310v3.52a12.15,12.15,0,0,1,9.52-4.47A11.11,11.11,0,0,1,328.1,22.23Z"/><path class="cls-1" d="M372.73,9.32A15.17,15.17,0,0,1,384,13.61a15.13,15.13,0,0,1,4.28,11.18,15.29,15.29,0,0,1-4.63,11.62q-4.64,4.41-12.24,4.41h-7.85V52.13H349.41V9.32Zm-3.58,20.83a5.52,5.52,0,0,0,3.74-1.37,4.52,4.52,0,0,0,1.56-3.55,4.13,4.13,0,0,0-1.56-3.29,5.67,5.67,0,0,0-3.74-1.31h-5.62v9.52Z"/><path class="cls-1" d="M418.21,19.48l-.44,14.44h-1.92q-5,0-7.67,1.85c-1.78,1.24-2.68,3.52-2.68,6.84v9.52H391.77V19.67H405.5v6.71q3.13-7.08,10.35-7.09A16,16,0,0,1,418.21,19.48Z"/><path class="cls-1" d="M450.93,23.54a15.9,15.9,0,0,1,5.36,12.36,15.87,15.87,0,0,1-5.36,12.36,20.18,20.18,0,0,1-26.2,0,15.85,15.85,0,0,1-5.37-12.36,15.88,15.88,0,0,1,5.37-12.36,20.21,20.21,0,0,1,26.2,0Zm-9.3,16.51a6.49,6.49,0,0,0,0-8.3,5,5,0,0,0-7.6,0,6.49,6.49,0,0,0,0,8.3,5,5,0,0,0,7.6,0Z"/><path class="cls-1" d="M476.23,67.46H462l7.15-16.54L455.65,19.67H469.9L476,35l6.58-15.34H496.8Z"/><path class="cls-1" d="M509.51,39.16q1.15,3.77,4.8,3.77a5.84,5.84,0,0,0,2.87-.7,3.62,3.62,0,0,0,1.73-1.92l12.2,2.36a14.73,14.73,0,0,1-6.3,7.8,20.12,20.12,0,0,1-10.5,2.62,18.38,18.38,0,0,1-12.88-4.83,16,16,0,0,1-5.27-12.36,16,16,0,0,1,5.27-12.36,18.29,18.29,0,0,1,12.81-4.82q7.86,0,12.52,4.76t4.67,13.7v2Zm.07-6.9h8.81a4.47,4.47,0,0,0-1.59-2.4,4.2,4.2,0,0,0-2.56-.86A4.65,4.65,0,0,0,509.58,32.26Z"/><path class="cls-1" d="M568.87,39.42a14.58,14.58,0,0,1-5.69,9.9,18.22,18.22,0,0,1-11.5,3.77,18.68,18.68,0,0,1-13-4.83,15.89,15.89,0,0,1-5.34-12.36,15.92,15.92,0,0,1,5.34-12.36,18.67,18.67,0,0,1,13-4.82,18.29,18.29,0,0,1,11.47,3.7,14.33,14.33,0,0,1,5.65,9.78l-12.46,2.3a5.38,5.38,0,0,0-1.59-3.29A4.37,4.37,0,0,0,551.68,30a4.65,4.65,0,0,0-3.74,1.73,6.74,6.74,0,0,0,0,8.3,4.62,4.62,0,0,0,3.74,1.73,4.3,4.3,0,0,0,3.07-1.21,5.57,5.57,0,0,0,1.59-3.33Z"/><path class="cls-1" d="M597,50.72a20.07,20.07,0,0,1-9.65,2.37q-6.51,0-9.9-3.48T574,40.12v-9.9h-3.89V19.67H574V9.32h13.74V19.67h7.6V30.22h-7.6v8.17a3,3,0,0,0,.83,2.37,4,4,0,0,0,2.62.7,6.83,6.83,0,0,0,3.45-.77Z"/><path class="cls-1" d="M629.18,23.54a15.88,15.88,0,0,1,5.37,12.36,15.85,15.85,0,0,1-5.37,12.36,20.18,20.18,0,0,1-26.2,0,15.87,15.87,0,0,1-5.36-12.36A15.9,15.9,0,0,1,603,23.54a20.21,20.21,0,0,1,26.2,0Zm-9.3,16.51a6.49,6.49,0,0,0,0-8.3,5,5,0,0,0-7.6,0,6.49,6.49,0,0,0,0,8.3,5,5,0,0,0,7.6,0Z"/><path class="cls-1" d="M663.42,12.29A12.55,12.55,0,0,1,667.77,22a11,11,0,0,1-2.68,7.48,15.51,15.51,0,0,1-7.54,4.47V36.6H643.81l.06-10.92h5.63a5.75,5.75,0,0,0,3.16-.77,2.28,2.28,0,0,0,1.18-2,2.74,2.74,0,0,0-.73-2,2.58,2.58,0,0,0-2-.76,2.74,2.74,0,0,0-2.08.92,4,4,0,0,0-1,2.46l-13.86-2.81a15.81,15.81,0,0,1,5.81-9q4.41-3.37,12.2-3.38A16.05,16.05,0,0,1,663.42,12.29Zm-7.63,28.15a7,7,0,0,1,0,10.06,7.44,7.44,0,0,1-5.36,2,7.34,7.34,0,0,1-5.34-2,7.09,7.09,0,0,1,0-10.06,7.2,7.2,0,0,1,5.31-2.11A7.29,7.29,0,0,1,655.79,40.44Z"/><path class="cls-2" d="M33.54,47.41a15.84,15.84,0,0,1-5.81,9Q23.32,59.8,15.52,59.8A16,16,0,0,1,4.34,55.87,12.56,12.56,0,0,1,0,46.19a10.92,10.92,0,0,1,2.68-7.47,15.4,15.4,0,0,1,7.54-4.48V31.56H24l-.07,10.93H18.27a5.75,5.75,0,0,0-3.16.76,2.28,2.28,0,0,0-1.18,2,2.74,2.74,0,0,0,.73,2,2.58,2.58,0,0,0,1.95.77,2.75,2.75,0,0,0,2.08-.93,4,4,0,0,0,1-2.46ZM12,27.73a6.77,6.77,0,0,1-2.14-5A6.69,6.69,0,0,1,12,17.67a7.41,7.41,0,0,1,5.36-2,7.33,7.33,0,0,1,5.34,2,6.78,6.78,0,0,1,2.08,5.07,6.85,6.85,0,0,1-2.11,5,7.24,7.24,0,0,1-5.31,2.11A7.31,7.31,0,0,1,12,27.73Z"/><path class="cls-2" d="M55.58,18.21V49.13H41.46V18.21h-13V6.32H68.62V18.21Z"/><path class="cls-2" d="M85,2.14a7,7,0,0,1,2.15,5.14A7,7,0,0,1,85,12.49a7.43,7.43,0,0,1-5.39,2.08,7.35,7.35,0,0,1-5.37-2.08,7,7,0,0,1-2.11-5.21,7.05,7.05,0,0,1,2.11-5.14A7.2,7.2,0,0,1,79.61,0,7.28,7.28,0,0,1,85,2.14Zm-12.23,47V16.67H86.51V49.13Z"/><path class="cls-2" d="M103.69,36.16q1.16,3.77,4.79,3.77a5.85,5.85,0,0,0,2.88-.7,3.56,3.56,0,0,0,1.72-1.92l12.21,2.36a14.73,14.73,0,0,1-6.3,7.8,20.14,20.14,0,0,1-10.51,2.62,18.34,18.34,0,0,1-12.87-4.83A16,16,0,0,1,90.34,32.9a16,16,0,0,1,5.27-12.36,18.26,18.26,0,0,1,12.81-4.82q7.86,0,12.52,4.76t4.67,13.7v2Zm.07-6.9h8.81a4.52,4.52,0,0,0-1.59-2.4,4.2,4.2,0,0,0-2.56-.86A4.65,4.65,0,0,0,103.76,29.26Z"/><path class="cls-2" d="M160.65,19.23q3.22,3.51,3.23,9.65V49.13H150.14V31.82a4.11,4.11,0,0,0-1-2.88,3.34,3.34,0,0,0-2.59-1.08,3.58,3.58,0,0,0-2.94,1.34,5.41,5.41,0,0,0-1.08,3.51V49.13H128.8V16.67h13.74v3.52a12.15,12.15,0,0,1,9.52-4.47A11.11,11.11,0,0,1,160.65,19.23Z"/><path class="cls-2" d="M180.61,36.16q1.15,3.77,4.8,3.77a5.84,5.84,0,0,0,2.87-.7A3.62,3.62,0,0,0,190,37.31l12.2,2.36a14.76,14.76,0,0,1-6.29,7.8,20.19,20.19,0,0,1-10.51,2.62,18.38,18.38,0,0,1-12.88-4.83,16,16,0,0,1-5.27-12.36,16,16,0,0,1,5.27-12.36,18.29,18.29,0,0,1,12.81-4.82q7.86,0,12.52,4.76t4.67,13.7v2Zm.07-6.9h8.81a4.47,4.47,0,0,0-1.59-2.4,4.2,4.2,0,0,0-2.56-.86A4.65,4.65,0,0,0,180.68,29.26Z"/><path class="cls-2" d="M217.35,38.27a3.3,3.3,0,0,0,1.5,1.88,4.58,4.58,0,0,0,2.4.67c1.7,0,2.55-.42,2.55-1.27a1,1,0,0,0-.57-1,8.54,8.54,0,0,0-2-.45l-6.45-1q-9.9-1.53-9.9-9.84a9.83,9.83,0,0,1,4.37-8.5A18.45,18.45,0,0,1,220,15.72q13.42,0,16.1,8.75l-12,2.36a3.53,3.53,0,0,0-1.28-1.72,4,4,0,0,0-2.61-.83c-1.54,0-2.3.42-2.3,1.27,0,.64.55,1.07,1.66,1.28l7.28,1.34q10,1.86,10,10.87a9.2,9.2,0,0,1-4.44,8.14,20.19,20.19,0,0,1-11.28,2.91,23.92,23.92,0,0,1-11.11-2.3,10.62,10.62,0,0,1-5.63-7Z"/><path class="cls-2" d="M288.78,49.13H275V45.62a12.17,12.17,0,0,1-9.52,4.47,11.07,11.07,0,0,1-8.59-3.52q-3.23-3.51-3.23-9.64V16.67h13.74V34a4.09,4.09,0,0,0,1,2.87A3.32,3.32,0,0,0,271,38,3.61,3.61,0,0,0,274,36.61,5.46,5.46,0,0,0,275,33.09V16.67h13.74Z"/><path class="cls-2" d="M325.1,19.23q3.22,3.51,3.23,9.65V49.13H314.59V31.82a4.11,4.11,0,0,0-1-2.88A3.34,3.34,0,0,0,311,27.86a3.58,3.58,0,0,0-2.94,1.34A5.41,5.41,0,0,0,307,32.71V49.13H293.25V16.67H307v3.52a12.15,12.15,0,0,1,9.52-4.47A11.11,11.11,0,0,1,325.1,19.23Z"/><path class="cls-2" d="M369.73,6.32A15.17,15.17,0,0,1,381,10.61a15.13,15.13,0,0,1,4.28,11.18,15.29,15.29,0,0,1-4.63,11.62q-4.64,4.41-12.24,4.41h-7.85V49.13H346.41V6.32Zm-3.58,20.83a5.52,5.52,0,0,0,3.74-1.37,4.52,4.52,0,0,0,1.56-3.55,4.13,4.13,0,0,0-1.56-3.29,5.67,5.67,0,0,0-3.74-1.31h-5.62v9.52Z"/><path class="cls-2" d="M415.21,16.48l-.44,14.44h-1.92q-5,0-7.67,1.85c-1.78,1.24-2.68,3.52-2.68,6.84v9.52H388.77V16.67H402.5v6.71q3.13-7.08,10.35-7.09A16,16,0,0,1,415.21,16.48Z"/><path class="cls-2" d="M447.93,20.54a15.9,15.9,0,0,1,5.36,12.36,15.87,15.87,0,0,1-5.36,12.36,20.18,20.18,0,0,1-26.2,0,15.85,15.85,0,0,1-5.37-12.36,15.88,15.88,0,0,1,5.37-12.36,20.21,20.21,0,0,1,26.2,0Zm-9.3,16.51a6.49,6.49,0,0,0,0-8.3,5,5,0,0,0-7.6,0,6.49,6.49,0,0,0,0,8.3,5,5,0,0,0,7.6,0Z"/><path class="cls-2" d="M473.23,64.46H459l7.15-16.54L452.65,16.67H466.9L473,32l6.58-15.34H493.8Z"/><path class="cls-2" d="M506.51,36.16q1.15,3.77,4.8,3.77a5.84,5.84,0,0,0,2.87-.7,3.62,3.62,0,0,0,1.73-1.92l12.2,2.36a14.73,14.73,0,0,1-6.3,7.8,20.12,20.12,0,0,1-10.5,2.62,18.38,18.38,0,0,1-12.88-4.83,16,16,0,0,1-5.27-12.36,16,16,0,0,1,5.27-12.36,18.29,18.29,0,0,1,12.81-4.82q7.86,0,12.52,4.76t4.67,13.7v2Zm.07-6.9h8.81a4.47,4.47,0,0,0-1.59-2.4,4.2,4.2,0,0,0-2.56-.86A4.65,4.65,0,0,0,506.58,29.26Z"/><path class="cls-2" d="M565.87,36.42a14.58,14.58,0,0,1-5.69,9.9,18.22,18.22,0,0,1-11.5,3.77,18.68,18.68,0,0,1-13-4.83,15.89,15.89,0,0,1-5.34-12.36,15.92,15.92,0,0,1,5.34-12.36,18.67,18.67,0,0,1,13-4.82,18.29,18.29,0,0,1,11.47,3.7,14.33,14.33,0,0,1,5.65,9.78l-12.46,2.3a5.38,5.38,0,0,0-1.59-3.29A4.37,4.37,0,0,0,548.68,27a4.65,4.65,0,0,0-3.74,1.73,6.25,6.25,0,0,0-1.43,4.15,6.23,6.23,0,0,0,1.43,4.15,4.62,4.62,0,0,0,3.74,1.73,4.3,4.3,0,0,0,3.07-1.21,5.57,5.57,0,0,0,1.59-3.33Z"/><path class="cls-2" d="M594,47.72a20.07,20.07,0,0,1-9.65,2.37q-6.51,0-9.9-3.48T571,37.12v-9.9h-3.89V16.67H571V6.32h13.74V16.67h7.6V27.22h-7.6v8.17a3,3,0,0,0,.83,2.37,4,4,0,0,0,2.62.7,6.83,6.83,0,0,0,3.45-.77Z"/><path class="cls-2" d="M626.18,20.54a15.88,15.88,0,0,1,5.37,12.36,15.85,15.85,0,0,1-5.37,12.36,20.18,20.18,0,0,1-26.2,0,15.87,15.87,0,0,1-5.36-12.36A15.9,15.9,0,0,1,600,20.54a20.21,20.21,0,0,1,26.2,0Zm-9.3,16.51a6.49,6.49,0,0,0,0-8.3,5,5,0,0,0-7.6,0,6.49,6.49,0,0,0,0,8.3,5,5,0,0,0,7.6,0Z"/><path class="cls-2" d="M660.42,9.29A12.55,12.55,0,0,1,664.77,19a11,11,0,0,1-2.68,7.48,15.51,15.51,0,0,1-7.54,4.47V33.6H640.81l.06-10.92h5.63a5.75,5.75,0,0,0,3.16-.77,2.28,2.28,0,0,0,1.18-2,2.74,2.74,0,0,0-.73-2,2.58,2.58,0,0,0-2-.76,2.74,2.74,0,0,0-2.08.92,4,4,0,0,0-1,2.46l-13.86-2.81a15.81,15.81,0,0,1,5.81-9q4.41-3.37,12.2-3.38A16.05,16.05,0,0,1,660.42,9.29Zm-7.63,28.15a7,7,0,0,1,0,10.06,7.44,7.44,0,0,1-5.36,2,7.34,7.34,0,0,1-5.34-2,7.09,7.09,0,0,1,0-10.06,7.2,7.2,0,0,1,5.31-2.11A7.29,7.29,0,0,1,652.79,37.44Z"/></g></g></svg>